<?xml version="1.0" encoding="UTF-8"?>
<svg width="1592px" height="1170px" viewBox="0 0 1592 1170" version="1.1" xmlns="http://www.w3.org/2000/svg" xmlns:xlink="http://www.w3.org/1999/xlink">
    <!-- Generator: Sketch 49.3 (51167) - http://www.bohemiancoding.com/sketch -->
    <title>Untitled</title>
    <desc>Created with Sketch.</desc>
    <defs></defs>
    <g id="Page-1" stroke="none" stroke-width="1" fill="none" fill-rule="evenodd">
        <g id="Untitled" fill-rule="nonzero">
            <path d="M330.6,240 L360.6,240 L360.6,210 L330.6,210 L330.6,240 Z M90.6,240 L120.6,240 L120.6,210 L90.6,210 L90.6,240 Z M330.6,210 L330.6,180 L300.6,180 L300.6,210 L330.6,210 Z M330.6,60 L330.6,30 L270.6,30 L270.6,-3.75166564e-12 L180.6,-3.75166564e-12 L180.6,30 L120.6,30 L120.6,60 L90.6,60 L90.6,150 L150.6,150 L150.6,180 L180.6,180 L180.6,150 L270.6,150 L270.6,180 L300.6,180 L300.6,150 L360.6,150 L360.6,60 L330.6,60 Z M180.6,120 L120.6,120 L120.6,90 L180.6,90 L180.6,120 Z M330.6,120 L270.6,120 L270.6,90 L330.6,90 L330.6,120 Z M120.6,210 L150.6,210 L150.6,180 L120.6,180 L120.6,210 Z M180.6,210 L270.6,210 L270.6,180 L180.6,180 L180.6,210 Z" id="Shape" fill="#03BFD7"></path>
            <polygon id="Shape" fill="#8DC63F" points="784.9 60 784.9 30 724.9 30 724.9 -3.75166564e-12 634.9 -3.75166564e-12 634.9 30 574.9 30 574.9 60 544.9 60 544.9 150 574.9 150 574.9 210 604.9 210 604.9 150 634.9 150 634.9 180 724.9 180 724.9 150 754.9 150 754.9 210 784.9 210 784.9 150 814.9 150 814.9 60"></polygon>
            <path d="M1396.4,-3.75166564e-12 L1396.4,30 L1426.4,30 L1426.4,-3.75166564e-12 L1396.4,-3.75166564e-12 Z M1546.4,60 L1546.4,90 L1516.4,90 L1516.4,120 L1486.4,120 L1486.4,90 L1516.4,90 L1516.4,60 L1486.4,60 L1486.4,30 L1426.4,30 L1426.4,60 L1396.4,60 L1396.4,90 L1426.4,90 L1426.4,120 L1396.4,120 L1396.4,90 L1366.4,90 L1366.4,60 L1336.4,60 L1336.4,240 L1396.4,240 L1396.4,210 L1366.4,210 L1366.4,150 L1396.4,150 L1396.4,180 L1426.4,180 L1426.4,210 L1486.4,210 L1486.4,180 L1516.4,180 L1516.4,150 L1546.4,150 L1546.4,210 L1516.4,210 L1516.4,240 L1576.4,240 L1576.4,60 L1546.4,60 Z M1516.4,-3.75166564e-12 L1486.4,-3.75166564e-12 L1486.4,30 L1516.4,30 L1516.4,-3.75166564e-12 Z" id="Shape" fill="#BA9765"></path>
            <path d="M1546.4,540 L1576.4,540 L1576.4,510 L1546.4,510 L1546.4,540 Z M1336.4,540 L1366.4,540 L1366.4,510 L1336.4,510 L1336.4,540 Z M1396.4,540 L1426.4,540 L1426.4,510 L1396.4,510 L1396.4,540 Z M1486.4,540 L1516.4,540 L1516.4,510 L1486.4,510 L1486.4,540 Z M1546.4,390 L1546.4,360 L1516.4,360 L1516.4,330 L1486.4,330 L1486.4,300 L1426.4,300 L1426.4,330 L1396.4,330 L1396.4,360 L1366.4,360 L1366.4,390 L1336.4,390 L1336.4,450 L1396.4,450 L1396.4,480 L1426.4,480 L1426.4,450 L1486.4,450 L1486.4,480 L1516.4,480 L1516.4,450 L1576.4,450 L1576.4,390 L1546.4,390 Z" id="Shape" fill="#39B54A"></path>
            <path d="M420.6,750 L420.6,720 L390.6,720 L390.6,690 L360.6,690 L360.6,660 L300.6,660 L300.6,630 L150.6,630 L150.6,660 L90.6,660 L90.6,690 L60.6,690 L60.6,720 L30.6,720 L30.6,750 L0.6,750 L0.6,780 L60.6,780 L60.6,810 L90.6,810 L90.6,840 L120.6,840 L120.6,810 L150.6,810 L150.6,780 L180.6,780 L180.6,810 L270.6,810 L270.6,780 L300.6,780 L300.6,810 L330.6,810 L330.6,840 L360.6,840 L360.6,810 L390.6,810 L390.6,780 L450.6,780 L450.6,750 L420.6,750 Z M120.6,750 L90.6,750 L90.6,720 L120.6,720 L120.6,750 Z M180.6,750 L150.6,750 L150.6,720 L180.6,720 L180.6,750 Z M240.6,750 L210.6,750 L210.6,720 L240.6,720 L240.6,750 Z M300.6,750 L270.6,750 L270.6,720 L300.6,720 L300.6,750 Z M360.6,750 L330.6,750 L330.6,720 L360.6,720 L360.6,750 Z" id="Shape" fill="#FFDD00"></path>
            <path d="M619.9,600 L619.9,630 L649.9,630 L649.9,600 L619.9,600 Z M769.9,660 L769.9,690 L739.9,690 L739.9,720 L709.9,720 L709.9,690 L739.9,690 L739.9,660 L709.9,660 L709.9,630 L649.9,630 L649.9,660 L619.9,660 L619.9,690 L649.9,690 L649.9,720 L619.9,720 L619.9,690 L589.9,690 L589.9,660 L559.9,660 L559.9,780 L589.9,780 L589.9,750 L619.9,750 L619.9,810 L589.9,810 L589.9,840 L619.9,840 L649.9,840 L649.9,780 L709.9,780 L709.9,840 L739.9,840 L769.9,840 L769.9,810 L739.9,810 L739.9,750 L769.9,750 L769.9,780 L799.9,780 L799.9,660 L769.9,660 Z M739.9,600 L709.9,600 L709.9,630 L739.9,630 L739.9,600 Z" id="Shape" fill="#0072BC"></path>
            <path d="M1196.4,840 L1196.4,810 L1166.4,810 L1166.4,840 L1196.4,840 Z M1166.4,810 L1166.4,780 L1136.4,780 L1136.4,810 L1166.4,810 Z M1196.4,750 L1196.4,690 L1166.4,690 L1166.4,660 L1136.4,660 L1136.4,630 L1016.4,630 L1016.4,660 L986.4,660 L986.4,690 L956.4,690 L956.4,750 L1016.4,750 L1016.4,780 L1046.4,780 L1046.4,810 L1106.4,810 L1106.4,780 L1136.4,780 L1136.4,750 L1196.4,750 Z M1046.4,720 L1016.4,720 L1016.4,690 L1046.4,690 L1046.4,720 Z M1106.4,720 L1106.4,690 L1136.4,690 L1136.4,720 L1106.4,720 Z M956.4,840 L986.4,840 L986.4,810 L956.4,810 L956.4,840 Z M986.4,810 L1016.4,810 L1016.4,780 L986.4,780 L986.4,810 Z" id="Shape" fill="#EC008C"></path>
            <path d="M1471.4,630 L1441.4,630 L1441.4,690 L1471.4,690 L1471.4,630 Z M1561.4,810 L1561.4,750 L1531.4,750 L1471.4,750 L1471.4,720 L1441.4,720 L1441.4,750 L1381.4,750 L1351.4,750 L1351.4,810 L1321.4,810 L1321.4,840 L1591.4,840 L1591.4,810 L1561.4,810 Z" id="Shape" fill="#E6E7E8"></path>
            <path d="M120.6,1170 L150.6,1170 L150.6,1110 L120.6,1110 L120.6,1170 Z M150.6,960 L150.6,990 L180.6,990 L180.6,960 L150.6,960 Z M300.6,1110 L300.6,1170 L330.6,1170 L330.6,1110 L300.6,1110 Z M270.6,1020 L270.6,990 L180.6,990 L180.6,1020 L150.6,1020 L150.6,1110 L180.6,1110 L180.6,1170 L210.6,1170 L210.6,1110 L240.6,1110 L240.6,1170 L270.6,1170 L270.6,1110 L300.6,1110 L300.6,1020 L270.6,1020 Z M210.6,1080 L180.6,1080 L180.6,1050 L210.6,1050 L210.6,1080 Z M270.6,1080 L240.6,1080 L240.6,1050 L270.6,1050 L270.6,1080 Z M300.6,960 L270.6,960 L270.6,990 L300.6,990 L300.6,960 Z" id="Shape" fill="#F26522"></path>
            <path d="M724.9,1170 L784.9,1170 L784.9,1140 L724.9,1140 L724.9,1170 Z M544.9,1110 L544.9,1140 L574.9,1140 L574.9,1110 L544.9,1110 Z M604.9,1140 L574.9,1140 L574.9,1170 L604.9,1170 L634.9,1170 L634.9,1140 L604.9,1140 Z M784.9,1050 L784.9,1020 L814.9,1020 L814.9,960 L784.9,960 L784.9,930 L724.9,930 L724.9,900 L634.9,900 L634.9,930 L574.9,930 L574.9,960 L544.9,960 L544.9,1020 L574.9,1020 L574.9,1050 L604.9,1050 L604.9,1080 L574.9,1080 L574.9,1110 L634.9,1110 L634.9,1080 L724.9,1080 L724.9,1110 L784.9,1110 L784.9,1080 L754.9,1080 L754.9,1050 L784.9,1050 Z M604.9,990 L604.9,960 L634.9,960 L634.9,990 L604.9,990 Z M724.9,1050 L634.9,1050 L634.9,1020 L724.9,1020 L724.9,1050 Z M724.9,990 L724.9,960 L754.9,960 L754.9,990 L724.9,990 Z M814.9,1140 L814.9,1110 L784.9,1110 L784.9,1140 L814.9,1140 Z" id="Shape" fill="#BF245E"></path>
            <path d="M941.4,1170 L971.4,1170 L971.4,1140 L941.4,1140 L941.4,1170 Z M1031.4,1170 L1061.4,1170 L1061.4,1140 L1031.4,1140 L1031.4,1170 Z M971.4,1140 L1001.4,1140 L1001.4,1110 L971.4,1110 L971.4,1140 Z M1091.4,1110 L1061.4,1110 L1061.4,1140 L1091.4,1140 L1091.4,1170 L1121.4,1170 L1121.4,1140 L1091.4,1140 L1091.4,1110 Z M1181.4,1020 L1181.4,990 L1151.4,990 L1151.4,960 L1121.4,960 L1121.4,930 L1091.4,930 L1091.4,900 L1061.4,900 L1061.4,930 L1031.4,930 L1031.4,960 L1001.4,960 L1001.4,990 L971.4,990 L971.4,1020 L941.4,1020 L941.4,1080 L1001.4,1080 L1001.4,1110 L1151.4,1110 L1151.4,1080 L1211.4,1080 L1211.4,1020 L1181.4,1020 Z M1061.4,1050 L1001.4,1050 L1001.4,1020 L1061.4,1020 L1061.4,1050 Z M1151.4,1050 L1091.4,1050 L1091.4,1020 L1151.4,1020 L1151.4,1050 Z M1181.4,1110 L1151.4,1110 L1151.4,1140 L1181.4,1140 L1181.4,1170 L1211.4,1170 L1211.4,1140 L1181.4,1140 L1181.4,1110 Z" id="Shape" fill="#522E91"></path>
            <path d="M1351.4,1170 L1381.4,1170 L1381.4,1140 L1351.4,1140 L1351.4,1170 Z M1381.4,960 L1381.4,990 L1411.4,990 L1411.4,960 L1381.4,960 Z M1561.4,1170 L1561.4,1140 L1531.4,1140 L1531.4,1170 L1561.4,1170 Z M1561.4,990 L1561.4,1050 L1531.4,1050 L1531.4,1020 L1501.4,1020 L1501.4,990 L1411.4,990 L1411.4,1020 L1381.4,1020 L1381.4,1050 L1351.4,1050 L1351.4,990 L1321.4,990 L1321.4,1080 L1351.4,1080 L1351.4,1110 L1381.4,1110 L1381.4,1140 L1411.4,1140 L1411.4,1110 L1501.4,1110 L1501.4,1140 L1531.4,1140 L1531.4,1110 L1561.4,1110 L1561.4,1080 L1591.4,1080 L1591.4,990 L1561.4,990 Z M1441.4,1080 L1411.4,1080 L1411.4,1050 L1441.4,1050 L1441.4,1080 Z M1501.4,1080 L1471.4,1080 L1471.4,1050 L1501.4,1050 L1501.4,1080 Z M1531.4,960 L1501.4,960 L1501.4,990 L1531.4,990 L1531.4,960 Z" id="Shape" fill="#43978D"></path>
            <path d="M1136.4,240 L1166.4,240 L1166.4,210 L1136.4,210 L1136.4,240 Z M986.4,240 L1016.4,240 L1016.4,210 L986.4,210 L986.4,240 Z M1166.4,-3.75166564e-12 L1136.4,-3.75166564e-12 L1136.4,30 L1166.4,30 L1166.4,-3.75166564e-12 Z M986.4,-3.75166564e-12 L986.4,30 L1016.4,30 L1016.4,-3.75166564e-12 L986.4,-3.75166564e-12 Z M1196.4,120 L1196.4,90 L1166.4,90 L1166.4,60 L1136.4,60 L1136.4,30 L1106.4,30 L1106.4,60 L1046.4,60 L1046.4,30 L1016.4,30 L1016.4,60 L986.4,60 L986.4,90 L956.4,90 L956.4,120 L926.4,120 L926.4,180 L956.4,180 L956.4,150 L986.4,150 L986.4,180 L1016.4,180 L1016.4,210 L1046.4,210 L1046.4,180 L1106.4,180 L1106.4,210 L1136.4,210 L1136.4,180 L1166.4,180 L1166.4,150 L1196.4,150 L1196.4,180 L1226.4,180 L1226.4,120 L1196.4,120 Z M1046.4,120 L1016.4,120 L1016.4,90 L1046.4,90 L1046.4,120 Z M1136.4,120 L1106.4,120 L1106.4,90 L1136.4,90 L1136.4,120 Z" id="Shape" fill="#FDB913"></path>
            <path d="M375.6,420 L375.6,330 L345.6,330 L345.6,390 L315.6,390 L315.6,360 L285.6,360 L285.6,330 L255.6,330 L255.6,360 L195.6,360 L195.6,330 L165.6,330 L165.6,360 L135.6,360 L135.6,390 L105.6,390 L105.6,330 L75.6,330 L75.6,420 L105.6,420 L105.6,510 L75.6,510 L75.6,540 L135.6,540 L135.6,480 L165.6,480 L165.6,510 L195.6,510 L195.6,480 L255.6,480 L255.6,510 L285.6,510 L285.6,480 L315.6,480 L315.6,540 L345.6,540 L375.6,540 L375.6,510 L345.6,510 L345.6,420 L375.6,420 Z M195.6,450 L165.6,450 L165.6,390 L195.6,390 L195.6,450 Z M285.6,450 L255.6,450 L255.6,390 L285.6,390 L285.6,450 Z M135.6,300 L135.6,330 L165.6,330 L165.6,300 L135.6,300 Z M315.6,300 L285.6,300 L285.6,330 L315.6,330 L315.6,300 Z" id="Shape" fill="#82CA9C"></path>
            <path d="M799.9,390 L799.9,360 L769.9,360 L769.9,330 L739.9,330 L739.9,300 L709.9,300 L709.9,330 L649.9,330 L649.9,300 L619.9,300 L619.9,330 L589.9,330 L589.9,360 L559.9,360 L559.9,390 L529.9,390 L529.9,480 L559.9,480 L559.9,420 L589.9,420 L589.9,480 L619.9,480 L619.9,510 L589.9,510 L589.9,540 L619.9,540 L649.9,540 L649.9,480 L709.9,480 L709.9,540 L739.9,540 L769.9,540 L769.9,510 L739.9,510 L739.9,480 L769.9,480 L769.9,420 L799.9,420 L799.9,480 L829.9,480 L829.9,390 L799.9,390 Z M649.9,420 L619.9,420 L619.9,390 L649.9,390 L649.9,420 Z M739.9,420 L709.9,420 L709.9,390 L739.9,390 L739.9,420 Z" id="Shape" fill="#92278F"></path>
            <polygon id="Shape" fill="#ED1C24" points="1031.40002 510 1061.40002 510 1061.40002 540 1031.40002 540"></polygon>
            <path d="M1181.4,390 L1181.4,360 L1151.4,360 L1151.4,330 L1121.4,330 L1121.4,360 L1031.4,360 L1031.4,330 L1001.4,330 L1001.4,360 L971.4,360 L971.4,390 L941.4,390 L941.4,510 L971.4,510 L971.4,480 L1001.4,480 L1001.4,510 L1031.4,510 L1031.4,480 L1061.4,480 L1061.4,510 L1091.4,510 L1091.4,540 L1121.4,540 L1121.4,510 L1091.4,510 L1091.4,480 L1121.4,480 L1121.4,510 L1151.4,510 L1151.4,480 L1181.4,480 L1181.4,510 L1151.4,510 L1151.4,540 L1181.4,540 L1181.4,510 L1211.4,510 L1211.4,390 L1181.4,390 Z M1061.4,420 L1001.4,420 L1001.4,390 L1061.4,390 L1061.4,420 Z M1151.4,420 L1091.4,420 L1091.4,390 L1151.4,390 L1151.4,420 Z" id="Shape" fill="#ED1C24"></path>
            <polygon id="Shape" fill="#ED1C24" points="971.400024 510 1001.40002 510 1001.40002 540 971.400024 540"></polygon>
        </g>
    </g>
</svg>