<?xml version="1.0" encoding="UTF-8"?>
<svg width="61px" height="60px" viewBox="0 0 61 60" version="1.1" xmlns="http://www.w3.org/2000/svg" xmlns:xlink="http://www.w3.org/1999/xlink">
    <!-- Generator: Sketch 49.2 (51160) - http://www.bohemiancoding.com/sketch -->
    <title>Group 2</title>
    <desc>Created with Sketch.</desc>
    <defs></defs>
    <g id="Page-1" stroke="none" stroke-width="1" fill="none" fill-rule="evenodd">
        <g id="Group-2" fill="#000000" fill-rule="nonzero">
            <g id="Group" transform="translate(1.000000, 0.000000)">
                <rect id="Rectangle-path" x="51" y="0" width="9" height="9"></rect>
                <rect id="Rectangle-path" x="42" y="9" width="9" height="8"></rect>
                <rect id="Rectangle-path" x="34" y="17" width="8" height="9"></rect>
                <rect id="Rectangle-path" x="0" y="51" width="8" height="9"></rect>
                <rect id="Rectangle-path" x="8" y="43" width="9" height="8"></rect>
                <rect id="Rectangle-path" x="17" y="34" width="8" height="9"></rect>
                <rect id="Rectangle-path" x="25" y="26" width="9" height="8"></rect>
            </g>
            <g id="Group" transform="translate(30.000000, 30.000000) scale(-1, 1) translate(-30.000000, -30.000000) ">
                <rect id="Rectangle-path" x="51" y="0" width="9" height="9"></rect>
                <rect id="Rectangle-path" x="42" y="9" width="9" height="8"></rect>
                <rect id="Rectangle-path" x="34" y="17" width="8" height="9"></rect>
                <rect id="Rectangle-path" x="0" y="51" width="8" height="9"></rect>
                <rect id="Rectangle-path" x="8" y="43" width="9" height="8"></rect>
                <rect id="Rectangle-path" x="17" y="34" width="8" height="9"></rect>
                <rect id="Rectangle-path" x="25" y="26" width="9" height="8"></rect>
            </g>
        </g>
    </g>
</svg>