<?xml version="1.0" encoding="UTF-8"?>
<svg width="68px" height="60px" viewBox="0 0 68 60" version="1.1" xmlns="http://www.w3.org/2000/svg" xmlns:xlink="http://www.w3.org/1999/xlink">
    <!-- Generator: Sketch 49.2 (51160) - http://www.bohemiancoding.com/sketch -->
    <title>upvote</title>
    <desc>Created with Sketch.</desc>
    <defs></defs>
    <g id="Page-1" stroke="none" stroke-width="1" fill="none" fill-rule="evenodd">
        <g id="upvote" fill="#3F2287" fill-rule="nonzero">
            <rect id="Rectangle-path" x="8" y="0" width="7" height="7"></rect>
            <rect id="Rectangle-path" x="15" y="0" width="8" height="7"></rect>
            <rect id="Rectangle-path" x="23" y="0" width="6" height="7"></rect>
            <rect id="Rectangle-path" x="0" y="7" width="8" height="8"></rect>
            <rect id="Rectangle-path" x="8" y="7" width="7" height="8"></rect>
            <rect id="Rectangle-path" x="23" y="7" width="6" height="8"></rect>
            <rect id="Rectangle-path" x="29" y="7" width="9" height="8"></rect>
            <rect id="Rectangle-path" x="38" y="7" width="7" height="8"></rect>
            <rect id="Rectangle-path" x="45" y="7" width="8" height="8"></rect>
            <rect id="Rectangle-path" x="53" y="7" width="7" height="8"></rect>
            <rect id="Rectangle-path" x="60" y="7" width="8" height="8"></rect>
            <rect id="Rectangle-path" x="0" y="15" width="8" height="7"></rect>
            <rect id="Rectangle-path" x="15" y="15" width="8" height="7"></rect>
            <rect id="Rectangle-path" x="8" y="15" width="7" height="7"></rect>
            <rect id="Rectangle-path" x="15" y="7" width="8" height="8"></rect>
            <rect id="Rectangle-path" x="23" y="15" width="6" height="7"></rect>
            <rect id="Rectangle-path" x="29" y="15" width="9" height="7"></rect>
            <rect id="Rectangle-path" x="38" y="15" width="7" height="7"></rect>
            <rect id="Rectangle-path" x="45" y="15" width="8" height="7"></rect>
            <rect id="Rectangle-path" x="53" y="15" width="7" height="7"></rect>
            <rect id="Rectangle-path" x="60" y="15" width="8" height="7"></rect>
            <rect id="Rectangle-path" x="0" y="22" width="8" height="9"></rect>
            <rect id="Rectangle-path" x="8" y="22" width="7" height="9"></rect>
            <rect id="Rectangle-path" x="15" y="22" width="8" height="9"></rect>
            <rect id="Rectangle-path" x="23" y="22" width="6" height="9"></rect>
            <rect id="Rectangle-path" x="29" y="22" width="9" height="9"></rect>
            <rect id="Rectangle-path" x="38" y="22" width="7" height="9"></rect>
            <rect id="Rectangle-path" x="45" y="22" width="8" height="9"></rect>
            <rect id="Rectangle-path" x="53" y="22" width="7" height="9"></rect>
            <rect id="Rectangle-path" x="60" y="22" width="8" height="9"></rect>
            <rect id="Rectangle-path" x="8" y="31" width="7" height="6"></rect>
            <rect id="Rectangle-path" x="15" y="31" width="8" height="6"></rect>
            <rect id="Rectangle-path" x="23" y="31" width="6" height="6"></rect>
            <rect id="Rectangle-path" x="29" y="31" width="9" height="6"></rect>
            <rect id="Rectangle-path" x="38" y="31" width="7" height="6"></rect>
            <rect id="Rectangle-path" x="45" y="31" width="8" height="6"></rect>
            <rect id="Rectangle-path" x="53" y="31" width="7" height="6"></rect>
            <rect id="Rectangle-path" x="15" y="37" width="8" height="8"></rect>
            <rect id="Rectangle-path" x="23" y="37" width="6" height="8"></rect>
            <rect id="Rectangle-path" x="29" y="37" width="9" height="8"></rect>
            <rect id="Rectangle-path" x="38" y="37" width="7" height="8"></rect>
            <rect id="Rectangle-path" x="23" y="45" width="6" height="7"></rect>
            <rect id="Rectangle-path" x="29" y="45" width="9" height="7"></rect>
            <rect id="Rectangle-path" x="29" y="52" width="9" height="8"></rect>
            <rect id="Rectangle-path" x="38" y="45" width="7" height="7"></rect>
            <rect id="Rectangle-path" x="45" y="37" width="8" height="8"></rect>
            <rect id="Rectangle-path" x="38" y="0" width="7" height="7"></rect>
            <rect id="Rectangle-path" x="45" y="0" width="8" height="7"></rect>
            <rect id="Rectangle-path" x="53" y="0" width="7" height="7"></rect>
        </g>
    </g>
</svg>