<?xml version="1.0" encoding="UTF-8"?>
<svg width="60px" height="60px" viewBox="0 0 60 60" version="1.1" xmlns="http://www.w3.org/2000/svg" xmlns:xlink="http://www.w3.org/1999/xlink">
    <!-- Generator: Sketch 49.3 (51167) - http://www.bohemiancoding.com/sketch -->
    <title>trash can</title>
    <desc>Created with Sketch.</desc>
    <defs></defs>
    <g id="Page-1" stroke="none" stroke-width="1" fill="none" fill-rule="evenodd">
        <g id="trash-can" fill="#3F2287" fill-rule="nonzero">
            <rect id="Rectangle-path" x="6.8852459" y="13" width="6.8852459" height="6"></rect>
            <rect id="Rectangle-path" x="0" y="10" width="6.8852459" height="6"></rect>
            <rect id="Rectangle-path" x="0" y="5" width="6.8852459" height="6"></rect>
            <rect id="Rectangle-path" x="6.8852459" y="10" width="6.8852459" height="6"></rect>
            <rect id="Rectangle-path" x="6.8852459" y="5" width="6.8852459" height="6"></rect>
            <rect id="Rectangle-path" x="18.6885246" y="0" width="6.8852459" height="6"></rect>
            <rect id="Rectangle-path" x="13.7704918" y="5" width="6.8852459" height="6"></rect>
            <rect id="Rectangle-path" x="18.6885246" y="5" width="6.8852459" height="6"></rect>
            <rect id="Rectangle-path" x="16.7213115" y="0" width="6.8852459" height="6"></rect>
            <rect id="Rectangle-path" x="25.5737705" y="5" width="6.8852459" height="6"></rect>
            <rect id="Rectangle-path" x="23.6065574" y="0" width="6.8852459" height="6"></rect>
            <rect id="Rectangle-path" x="32.4590164" y="5" width="6.8852459" height="6"></rect>
            <rect id="Rectangle-path" x="30.4918033" y="0" width="6.8852459" height="6"></rect>
            <rect id="Rectangle-path" x="39.3442623" y="5" width="6.8852459" height="6"></rect>
            <rect id="Rectangle-path" x="37.3770492" y="0" width="6.8852459" height="6"></rect>
            <rect id="Rectangle-path" x="6.8852459" y="19" width="6.8852459" height="7"></rect>
            <rect id="Rectangle-path" x="20.6557377" y="22" width="6.8852459" height="26"></rect>
            <rect id="Rectangle-path" x="32.4590164" y="22" width="6.8852459" height="26"></rect>
            <rect id="Rectangle-path" x="6.8852459" y="26" width="6.8852459" height="7"></rect>
            <rect id="Rectangle-path" x="6.8852459" y="33" width="6.8852459" height="6"></rect>
            <rect id="Rectangle-path" x="6.8852459" y="39" width="6.8852459" height="7"></rect>
            <rect id="Rectangle-path" x="6.8852459" y="46" width="6.8852459" height="7"></rect>
            <rect id="Rectangle-path" x="13.7704918" y="53" width="6.8852459" height="7"></rect>
            <rect id="Rectangle-path" x="20.6557377" y="53" width="6.8852459" height="7"></rect>
            <rect id="Rectangle-path" x="27.5409836" y="53" width="6.8852459" height="7"></rect>
            <rect id="Rectangle-path" x="34.4262295" y="53" width="6.8852459" height="7"></rect>
            <rect id="Rectangle-path" x="39.3442623" y="53" width="6.8852459" height="7"></rect>
            <g id="Group-6" transform="translate(49.672131, 29.000000) scale(-1, 1) translate(-49.672131, -29.000000) translate(39.344262, 5.000000)">
                <rect id="Rectangle-path" transform="translate(10.327869, 11.000000) scale(-1, 1) translate(-10.327869, -11.000000) " x="6.8852459" y="8" width="6.8852459" height="6"></rect>
                <rect id="Rectangle-path" transform="translate(3.442623, 8.000000) scale(-1, 1) translate(-3.442623, -8.000000) " x="0" y="5" width="6.8852459" height="6"></rect>
                <rect id="Rectangle-path" transform="translate(3.442623, 3.000000) scale(-1, 1) translate(-3.442623, -3.000000) " x="0" y="0" width="6.8852459" height="6"></rect>
                <rect id="Rectangle-path" transform="translate(10.327869, 8.000000) scale(-1, 1) translate(-10.327869, -8.000000) " x="6.8852459" y="5" width="6.8852459" height="6"></rect>
                <rect id="Rectangle-path" transform="translate(10.327869, 3.000000) scale(-1, 1) translate(-10.327869, -3.000000) " x="6.8852459" y="0" width="6.8852459" height="6"></rect>
                <rect id="Rectangle-path" transform="translate(17.213115, 3.000000) scale(-1, 1) translate(-17.213115, -3.000000) " x="13.7704918" y="0" width="6.8852459" height="6"></rect>
                <rect id="Rectangle-path" transform="translate(10.327869, 17.500000) scale(-1, 1) translate(-10.327869, -17.500000) " x="6.8852459" y="14" width="6.8852459" height="7"></rect>
                <rect id="Rectangle-path" transform="translate(10.327869, 24.500000) scale(-1, 1) translate(-10.327869, -24.500000) " x="6.8852459" y="21" width="6.8852459" height="7"></rect>
                <rect id="Rectangle-path" transform="translate(10.327869, 31.000000) scale(-1, 1) translate(-10.327869, -31.000000) " x="6.8852459" y="28" width="6.8852459" height="6"></rect>
                <rect id="Rectangle-path" transform="translate(10.327869, 37.500000) scale(-1, 1) translate(-10.327869, -37.500000) " x="6.8852459" y="34" width="6.8852459" height="7"></rect>
                <rect id="Rectangle-path" transform="translate(10.327869, 44.500000) scale(-1, 1) translate(-10.327869, -44.500000) " x="6.8852459" y="41" width="6.8852459" height="7"></rect>
            </g>
        </g>
    </g>
</svg>