<?xml version="1.0" encoding="UTF-8"?>
<svg width="60px" height="60px" viewBox="0 0 60 60" version="1.1" xmlns="http://www.w3.org/2000/svg" xmlns:xlink="http://www.w3.org/1999/xlink">
    <!-- Generator: Sketch 49.3 (51167) - http://www.bohemiancoding.com/sketch -->
    <title>Group 5</title>
    <desc>Created with Sketch.</desc>
    <defs></defs>
    <g id="Page-1" stroke="none" stroke-width="1" fill="none" fill-rule="evenodd">
        <g id="Group-5" fill="#3F2287" fill-rule="nonzero">
            <g id="find" transform="translate(41.500000, 18.500000) scale(-1, 1) translate(-41.500000, -18.500000) translate(23.000000, 0.000000)">
                <g id="Group-4">
                    <rect id="Rectangle-path" x="12" y="12" width="6" height="6"></rect>
                    <rect id="Rectangle-path" x="18" y="18" width="5" height="5"></rect>
                    <rect id="Rectangle-path" x="12" y="18" width="6" height="5"></rect>
                    <rect id="Rectangle-path" x="18" y="12" width="5" height="6"></rect>
                    <rect id="Rectangle-path" x="12" y="12" width="6" height="6"></rect>
                    <rect id="Rectangle-path" x="17" y="18" width="6" height="5"></rect>
                    <rect id="Rectangle-path" x="17" y="12" width="6" height="6"></rect>
                    <g id="Group-3">
                        <rect id="Rectangle-path" x="12" y="13" width="6" height="5"></rect>
                        <rect id="Rectangle-path" x="12" y="7" width="6" height="6"></rect>
                        <rect id="Rectangle-path" x="7" y="13" width="6" height="5"></rect>
                        <rect id="Rectangle-path" x="4" y="5" width="6" height="6"></rect>
                        <rect id="Rectangle-path" x="0" y="7" width="6" height="6"></rect>
                        <rect id="Rectangle-path" x="6" y="0" width="6" height="6"></rect>
                        <rect id="Rectangle-path" x="3" y="1" width="6" height="6"></rect>
                        <rect id="Rectangle-path" x="1" y="3" width="6" height="6"></rect>
                        <rect id="Rectangle-path" x="6" y="0" width="6" height="6"></rect>
                    </g>
                    <rect id="Rectangle-path" x="23" y="23" width="6" height="6"></rect>
                    <rect id="Rectangle-path" x="18" y="23" width="5" height="6"></rect>
                    <rect id="Rectangle-path" x="23" y="18" width="6" height="5"></rect>
                    <rect id="Rectangle-path" x="29" y="29" width="5" height="5"></rect>
                    <rect id="Rectangle-path" x="32" y="32" width="5" height="5"></rect>
                    <rect id="Rectangle-path" x="31" y="29" width="5" height="5"></rect>
                    <rect id="Rectangle-path" x="28" y="31" width="5" height="5"></rect>
                    <rect id="Rectangle-path" x="23" y="29" width="6" height="5"></rect>
                    <rect id="Rectangle-path" x="29" y="23" width="5" height="6"></rect>
                </g>
            </g>
            <g id="information">
                <rect id="Rectangle-path" x="20" y="0" width="7" height="7"></rect>
                <rect id="Rectangle-path" x="13" y="0" width="7" height="7"></rect>
                <rect id="Rectangle-path" x="7" y="0" width="6" height="7"></rect>
                <rect id="Rectangle-path" x="0" y="7" width="7" height="6"></rect>
                <rect id="Rectangle-path" x="0" y="13" width="7" height="7"></rect>
                <rect id="Rectangle-path" x="0" y="20" width="7" height="7"></rect>
                <rect id="Rectangle-path" x="0" y="27" width="7" height="6"></rect>
                <rect id="Rectangle-path" x="0" y="33" width="7" height="7"></rect>
                <rect id="Rectangle-path" x="0" y="40" width="7" height="7"></rect>
                <rect id="Rectangle-path" x="54" y="27" width="6" height="6"></rect>
                <rect id="Rectangle-path" x="54" y="33" width="6" height="7"></rect>
                <rect id="Rectangle-path" x="54" y="40" width="6" height="7"></rect>
                <rect id="Rectangle-path" x="54" y="47" width="6" height="7"></rect>
                <rect id="Rectangle-path" x="0" y="47" width="7" height="7"></rect>
                <rect id="Rectangle-path" x="40" y="54" width="7" height="6"></rect>
                <rect id="Rectangle-path" x="34" y="54" width="6" height="6"></rect>
                <rect id="Rectangle-path" x="47" y="54" width="7" height="6"></rect>
                <rect id="Rectangle-path" x="27" y="54" width="7" height="6"></rect>
                <rect id="Rectangle-path" x="20" y="54" width="7" height="6"></rect>
                <rect id="Rectangle-path" x="13" y="54" width="7" height="6"></rect>
                <rect id="Rectangle-path" x="7" y="54" width="6" height="6"></rect>
            </g>
        </g>
    </g>
</svg>