<?xml version="1.0" encoding="UTF-8"?>
<svg width="81px" height="40px" viewBox="0 0 81 40" version="1.1" xmlns="http://www.w3.org/2000/svg" xmlns:xlink="http://www.w3.org/1999/xlink">
    <!-- Generator: Sketch 49.2 (51160) - http://www.bohemiancoding.com/sketch -->
    <title>logo</title>
    <desc>Created with Sketch.</desc>
    <defs></defs>
    <g id="Page-1" stroke="none" stroke-width="1" fill="none" fill-rule="evenodd">
        <g id="logo" fill="#3F2287" fill-rule="nonzero">
            <path d="M80.4877193,22.4182456 C80.8283901,21.8874701 80.9094582,21.230663 80.7080702,20.6329825 C80.5050974,20.098574 80.147714,19.6366383 79.6814035,19.3059649 C79.102271,18.8820794 78.4471367,18.5733325 77.7515789,18.3964912 C78.2895919,18.0702425 78.7566036,17.6392649 79.1249123,17.1291228 C79.4168421,16.7242105 79.5592982,16.2308772 79.5249123,15.7319298 C79.4707444,15.26302 79.2652903,14.8245209 78.9396491,14.482807 C78.5686771,14.0836925 78.1301282,13.7532365 77.6442105,13.5066667 C78.2435088,10.7698246 78.9515789,8.05894737 79.7684211,5.37894737 C69.9449501,-0.260232945 58.0755231,-1.07443367 47.5740351,3.17052632 C45.0503879,4.25050764 42.655202,5.60886236 40.4329825,7.22035088 C29.6292774,-0.622885098 15.350618,-1.77797974 3.42666667,4.22666667 C2.64029251,4.58851108 1.86430975,4.97252426 1.09964912,5.37824561 C1.91676271,8.05786485 2.62564108,10.7693012 3.2245614,13.5059649 C2.68068386,13.7781945 2.19882555,14.1597154 1.80912281,14.6266667 C1.49101127,15.0085516 1.32309313,15.4933435 1.33684211,15.9901754 C1.37333333,16.4631579 1.55368421,16.9136842 1.85333333,17.28 C2.20712989,17.7220238 2.63471971,18.0995184 3.11719298,18.3957895 C2.29827652,18.59706 1.53923173,18.9908972 0.903157895,19.5445614 C0.487369849,19.9059071 0.199190949,20.3917014 0.0814035088,20.9298246 C-0.0098612971,21.4712466 0.111847785,22.0269844 0.421052632,22.4807018 C0.749712577,22.9679516 1.17485361,23.3825835 1.67017544,23.6989474 C1.18348587,23.9737273 0.756072538,24.3422282 0.412631579,24.7831579 C0.0982219563,25.1871605 -0.0449213374,25.6984945 0.0140350877,26.2070175 C0.0897935407,26.6804594 0.300564499,27.121982 0.621052632,27.4785965 C1.18947368,28.1101754 1.89473684,28.6042105 2.68210526,28.9235088 C3.42666667,29.2442105 4.21614035,29.4477193 5.02245614,29.525614 C5.03087719,32.9922807 4.89473684,36.4582456 4.61614035,39.9150877 C10.1196872,37.0338173 16.1451386,35.2854318 22.3361404,34.7733333 C28.6178579,34.5499499 34.8509759,35.9508787 40.4329825,38.8407018 C46.6296826,35.5964351 53.642301,34.2422238 60.6014035,34.9459649 C66.0585756,35.7162475 71.3480144,37.3958975 76.2498246,39.9150877 C75.9705263,36.4582456 75.8357895,32.9929825 75.842807,29.525614 C77.2619048,29.4023196 78.6142166,28.8677357 79.7340351,27.9873684 C80.137925,27.6648978 80.4635023,27.2551072 80.6863158,26.7887719 C80.9839034,26.1608179 80.9150123,25.4205075 80.5066667,24.8582456 C80.1881101,24.4155875 79.7805703,24.0443797 79.3101754,23.7684211 C79.7145215,23.3696631 80.1543563,22.9326998 80.4877193,22.4182456 Z" id="Shape"></path>
        </g>
    </g>
</svg>